<svg width="133" height="139" viewBox="0 0 133 139" fill="none" xmlns="http://www.w3.org/2000/svg" color="#BABABA">
<g filter="url(#filter0_d_11_1826)">
<path d="M127 60.024C127 48.752 120.032 38.9312 110.203 37.2897C103.458 36.1625 96.6445 35.2959 89.7692 34.6901V1.97288L64.4771 30.6885C62.7619 32.6234 60.4596 33.74 58.0424 33.8094C46.2439 34.1803 34.475 35.3424 22.7973 37.2897C12.9684 38.9312 6 48.7449 6 60.0311L6 102.428C6 113.714 12.9684 123.528 22.7973 125.17C37.2679 127.581 51.8743 128.789 66.5 128.784C81.3427 128.784 95.9371 127.551 110.203 125.17C120.032 123.528 127 113.707 127 102.428L127 60.0311V60.024Z" fill="white"/>
<path d="M127 60.024C127 48.752 120.032 38.9312 110.203 37.2897C103.458 36.1625 96.6445 35.2959 89.7692 34.6901V1.97288L64.4771 30.6885C62.7619 32.6234 60.4596 33.74 58.0424 33.8094C46.2439 34.1803 34.475 35.3424 22.7973 37.2897C12.9684 38.9312 6 48.7449 6 60.0311L6 102.428C6 113.714 12.9684 123.528 22.7973 125.17C37.2679 127.581 51.8743 128.789 66.5 128.784C81.3427 128.784 95.9371 127.551 110.203 125.17C120.032 123.528 127 113.707 127 102.428L127 60.0311V60.024Z" stroke="currentColor" stroke-width="3" stroke-linecap="round" stroke-linejoin="round"/>
</g>
<defs>
<filter id="filter0_d_11_1826" x="0.5" y="0.4729" width="132" height="137.811" filterUnits="userSpaceOnUse" color-interpolation-filters="sRGB">
<feFlood flood-opacity="0" result="BackgroundImageFix"/>
<feColorMatrix in="SourceAlpha" type="matrix" values="0 0 0 0 0 0 0 0 0 0 0 0 0 0 0 0 0 0 127 0" result="hardAlpha"/>
<feOffset dy="4"/>
<feGaussianBlur stdDeviation="2"/>
<feComposite in2="hardAlpha" operator="out"/>
<feColorMatrix type="matrix" values="0 0 0 0 0 0 0 0 0 0 0 0 0 0 0 0 0 0 0.25 0"/>
<feBlend mode="normal" in2="BackgroundImageFix" result="effect1_dropShadow_11_1826"/>
<feBlend mode="normal" in="SourceGraphic" in2="effect1_dropShadow_11_1826" result="shape"/>
</filter>
</defs>
</svg>
