<svg width="307" height="63" viewBox="0 0 307 63" fill="none" xmlns="http://www.w3.org/2000/svg" color="#C476D1">
<path d="M3.16776 9.1919L2.68313 9.6766C1.02541 11.3429 0 13.6395 0 16.1754C0 18.7113 1.02541 21.0079 2.68313 22.6742L28.8426 48.8379C29.9325 49.928 31.3885 50.6478 33.0129 50.7976L33.04 50.7996L41.3889 51.5527L45.4947 55.6592C45.731 55.9169 46.0171 56.1242 46.3355 56.2686C46.654 56.413 46.9984 56.4915 47.348 56.4993C47.6976 56.5072 48.0452 56.4443 48.3698 56.3144C48.6945 56.1844 48.9895 55.9902 49.2372 55.7433C49.4849 55.4964 49.6801 55.202 49.8111 54.8778C49.9421 54.5535 50.0062 54.2061 49.9995 53.8564C49.9929 53.5067 49.9156 53.162 49.7723 52.843C49.629 52.524 49.4227 52.2372 49.1658 52L49.1637 51.9979L45.0579 47.8914L44.305 39.5411C44.1542 37.9582 43.4614 36.476 42.3436 35.3452L16.1862 9.18357C15.3321 8.33121 14.3184 7.6555 13.2032 7.19505C12.0879 6.73459 10.8929 6.49841 9.68632 6.50001C8.47611 6.49834 7.27752 6.73605 6.15951 7.19946C5.04151 7.66287 4.02617 8.34283 3.17192 9.20022L3.16776 9.1919ZM40.6339 37.0282C41.339 37.7396 41.809 38.6882 41.9151 39.7429L41.9172 39.7617L42.5828 47.0843L40.5611 49.1084L33.2397 48.4427C32.2067 48.3495 31.2397 47.895 30.5087 47.1591L29.5685 46.2209L31.349 44.4402L30.0532 43.14L28.2748 44.9208L25.9245 42.57L27.7049 40.7893L26.4091 39.4891L24.6307 41.2699L22.2575 38.9004L24.0359 37.1197L22.7359 35.8195L20.9576 37.6002L18.6072 35.2495L20.3877 33.4688L19.0877 32.1686L17.3093 33.9493L14.9403 31.5799L16.7186 29.7992L15.4187 28.499L13.6403 30.2797L11.292 27.929L13.0704 26.1483L11.7704 24.8481L9.99207 26.6288L7.62301 24.2594L9.40137 22.4787L8.10348 21.1785L6.32304 22.9592L4.36165 20.9996C3.13032 19.766 2.36698 18.0643 2.36698 16.1837C2.36698 14.3032 3.12824 12.5994 4.36165 11.3679L4.84628 10.8832C6.07969 9.65164 7.78109 8.88817 9.66136 8.88817C11.5416 8.88817 13.2451 9.64956 14.4764 10.8832L40.6339 37.0282Z" fill="currentColor"/>
<path d="M82.7 39.65H74.25C71.0167 39.65 68.6833 38.9833 67.25 37.65C65.85 36.2833 65.15 34.1833 65.15 31.35V13.8C65.15 13.1667 65.2833 12.7167 65.55 12.45C65.85 12.15 66.3167 12 66.95 12H74.7C75.3333 12 75.7833 12.15 76.05 12.45C76.35 12.7167 76.5 13.1667 76.5 13.8V27.5C76.5 28.0333 76.6333 28.45 76.9 28.75C77.2 29.05 77.5833 29.2 78.05 29.2H82.7V13.8C82.7 13.1667 82.8333 12.7167 83.1 12.45C83.4 12.15 83.8667 12 84.5 12H92.2C92.8333 12 93.2833 12.15 93.55 12.45C93.85 12.7167 94 13.1667 94 13.8V46.2C94 46.8333 93.85 47.3 93.55 47.6C93.2833 47.8667 92.8333 48 92.2 48H84.5C83.8667 48 83.4 47.8667 83.1 47.6C82.8333 47.3 82.7 46.8333 82.7 46.2V39.65ZM126.049 48H102.249C101.616 48 101.149 47.8667 100.849 47.6C100.583 47.3 100.449 46.8333 100.449 46.2V37.6C100.449 35.6667 100.633 34.0833 100.999 32.85C101.399 31.5833 101.949 30.55 102.649 29.75C103.349 28.95 104.183 28.3167 105.149 27.85C106.116 27.3833 107.166 26.9833 108.299 26.65L114.999 24.55C115.533 24.4167 115.883 24.2167 116.049 23.95C116.249 23.6833 116.349 23.2833 116.349 22.75C116.349 22.25 116.249 21.9167 116.049 21.75C115.849 21.55 115.499 21.45 114.999 21.45H104.149C103.516 21.45 103.049 21.3167 102.749 21.05C102.483 20.75 102.349 20.2833 102.349 19.65V13.8C102.349 13.1667 102.483 12.7167 102.749 12.45C103.049 12.15 103.516 12 104.149 12H118.899C121.733 12 123.899 12.7167 125.399 14.15C126.933 15.55 127.699 17.6 127.699 20.3V25C127.699 27.5 126.999 29.4167 125.599 30.75C124.199 32.0833 122.299 33.1167 119.899 33.85L113.099 36C112.599 36.1333 112.249 36.2833 112.049 36.45C111.883 36.6167 111.799 36.9667 111.799 37.5V38.55H126.049C126.683 38.55 127.133 38.7 127.399 39C127.699 39.2667 127.849 39.7167 127.849 40.35V46.2C127.849 46.8333 127.699 47.3 127.399 47.6C127.133 47.8667 126.683 48 126.049 48ZM165.333 38.55C165.333 40.0833 165.099 41.4833 164.633 42.75C164.199 43.9833 163.399 45.05 162.233 45.95C161.099 46.8167 159.516 47.5 157.483 48C155.483 48.5 152.933 48.75 149.833 48.75C146.733 48.75 144.166 48.5 142.133 48C140.099 47.5 138.499 46.8167 137.333 45.95C136.199 45.05 135.399 43.9833 134.933 42.75C134.499 41.4833 134.283 40.0833 134.283 38.55V21.5C134.283 19.9667 134.499 18.5833 134.933 17.35C135.399 16.0833 136.199 15 137.333 14.1C138.499 13.2 140.099 12.5 142.133 12C144.166 11.5 146.733 11.25 149.833 11.25C152.933 11.25 155.483 11.5 157.483 12C159.516 12.5 161.099 13.2 162.233 14.1C163.399 15 164.199 16.0833 164.633 17.35C165.099 18.5833 165.333 19.9667 165.333 21.5V38.55ZM145.633 36.75C145.633 37.4167 145.883 37.9833 146.383 38.45C146.883 38.8833 148.033 39.1 149.833 39.1C151.633 39.1 152.783 38.8833 153.283 38.45C153.783 37.9833 154.033 37.4167 154.033 36.75V23.3C154.033 22.6667 153.783 22.1333 153.283 21.7C152.783 21.2333 151.633 21 149.833 21C148.033 21 146.883 21.2333 146.383 21.7C145.883 22.1333 145.633 22.6667 145.633 23.3V36.75ZM181.998 48H174.498C173.865 48 173.398 47.8667 173.098 47.6C172.831 47.3 172.698 46.8333 172.698 46.2V13.8C172.698 13.1667 172.831 12.7167 173.098 12.45C173.398 12.15 173.865 12 174.498 12H179.698C180.331 12 180.865 12.1 181.298 12.3C181.765 12.5 182.215 12.85 182.648 13.35L192.348 24.45V13.8C192.348 13.1667 192.481 12.7167 192.748 12.45C193.048 12.15 193.515 12 194.148 12H201.648C202.281 12 202.731 12.15 202.998 12.45C203.298 12.7167 203.448 13.1667 203.448 13.8V46.2C203.448 46.8333 203.298 47.3 202.998 47.6C202.731 47.8667 202.281 48 201.648 48H194.148C193.515 48 193.048 47.8667 192.748 47.6C192.481 47.3 192.348 46.8333 192.348 46.2V40.05L183.798 29.7V46.2C183.798 46.8333 183.648 47.3 183.348 47.6C183.081 47.8667 182.631 48 181.998 48ZM229.995 48H213.145C212.511 48 212.045 47.8667 211.745 47.6C211.478 47.3 211.345 46.8333 211.345 46.2V13.8C211.345 13.1667 211.478 12.7167 211.745 12.45C212.045 12.15 212.511 12 213.145 12H229.995C234.161 12 237.245 12.8333 239.245 14.5C241.278 16.1667 242.295 18.7333 242.295 22.2V37.8C242.295 41.2667 241.278 43.8333 239.245 45.5C237.245 47.1667 234.161 48 229.995 48ZM222.695 21.55V38.55H228.645C229.445 38.55 230.028 38.35 230.395 37.95C230.795 37.55 230.995 36.9333 230.995 36.1V23.95C230.995 23.1167 230.795 22.5167 230.395 22.15C230.028 21.75 229.445 21.55 228.645 21.55H222.695ZM280.149 38.55C280.149 40.0833 279.916 41.4833 279.449 42.75C279.016 43.9833 278.216 45.05 277.049 45.95C275.916 46.8167 274.333 47.5 272.299 48C270.299 48.5 267.749 48.75 264.649 48.75C261.549 48.75 258.983 48.5 256.949 48C254.916 47.5 253.316 46.8167 252.149 45.95C251.016 45.05 250.216 43.9833 249.749 42.75C249.316 41.4833 249.099 40.0833 249.099 38.55V21.5C249.099 19.9667 249.316 18.5833 249.749 17.35C250.216 16.0833 251.016 15 252.149 14.1C253.316 13.2 254.916 12.5 256.949 12C258.983 11.5 261.549 11.25 264.649 11.25C267.749 11.25 270.299 11.5 272.299 12C274.333 12.5 275.916 13.2 277.049 14.1C278.216 15 279.016 16.0833 279.449 17.35C279.916 18.5833 280.149 19.9667 280.149 21.5V38.55ZM260.449 36.75C260.449 37.4167 260.699 37.9833 261.199 38.45C261.699 38.8833 262.849 39.1 264.649 39.1C266.449 39.1 267.599 38.8833 268.099 38.45C268.599 37.9833 268.849 37.4167 268.849 36.75V23.3C268.849 22.6667 268.599 22.1333 268.099 21.7C267.599 21.2333 266.449 21 264.649 21C262.849 21 261.699 21.2333 261.199 21.7C260.699 22.1333 260.449 22.6667 260.449 23.3V36.75Z" fill="currentColor"/>
</svg>
