<svg width="51" height="50" viewBox="0 0 51 50" fill="none" xmlns="http://www.w3.org/2000/svg">
<path d="M3.66776 2.6919L3.18313 3.1766C1.52541 4.84291 0.5 7.13954 0.5 9.67541C0.5 12.2113 1.52541 14.5079 3.18313 16.1742L29.3426 42.3379C30.4325 43.428 31.8885 44.1478 33.5129 44.2976L33.54 44.2996L41.8889 45.0527L45.9947 49.1592C46.231 49.4169 46.5171 49.6242 46.8355 49.7686C47.154 49.913 47.4984 49.9915 47.848 49.9993C48.1976 50.0072 48.5452 49.9443 48.8698 49.8144C49.1945 49.6844 49.4895 49.4902 49.7372 49.2433C49.9849 48.9964 50.1801 48.702 50.3111 48.3778C50.4421 48.0535 50.5062 47.7061 50.4995 47.3564C50.4929 47.0067 50.4156 46.662 50.2723 46.343C50.129 46.024 49.9227 45.7372 49.6658 45.5L49.6637 45.4979L45.5579 41.3914L44.805 33.0411C44.6542 31.4582 43.9614 29.976 42.8436 28.8452L16.6862 2.68357C15.8321 1.83121 14.8184 1.1555 13.7032 0.695046C12.5879 0.234591 11.3929 -0.00158519 10.1863 8.7164e-06C8.97611 -0.00165917 7.77752 0.236052 6.65951 0.699462C5.54151 1.16287 4.52617 1.84283 3.67192 2.70022L3.66776 2.6919ZM41.1339 30.5282C41.839 31.2396 42.309 32.1882 42.4151 33.2429L42.4172 33.2617L43.0828 40.5843L41.0611 42.6084L33.7397 41.9427C32.7067 41.8495 31.7397 41.395 31.0087 40.6591L30.0685 39.7209L31.849 37.9402L30.5532 36.64L28.7748 38.4208L26.4245 36.07L28.2049 34.2893L26.9091 32.9891L25.1307 34.7699L22.7575 32.4004L24.5359 30.6197L23.2359 29.3195L21.4576 31.1002L19.1072 28.7495L20.8877 26.9688L19.5877 25.6686L17.8093 27.4493L15.4403 25.0799L17.2186 23.2992L15.9187 21.999L14.1403 23.7797L11.792 21.429L13.5704 19.6483L12.2704 18.3481L10.4921 20.1288L8.12301 17.7594L9.90137 15.9787L8.60348 14.6785L6.82304 16.4592L4.86165 14.4996C3.63032 13.266 2.86698 11.5643 2.86698 9.68373C2.86698 7.80315 3.62824 6.0994 4.86165 4.86787L5.34628 4.38317C6.57969 3.15164 8.28109 2.38817 10.1614 2.38817C12.0416 2.38817 13.7451 3.14956 14.9764 4.38317L41.1339 30.5282Z" fill="#C476D1"/>
</svg>
